<svg id="visual" viewBox="0 0 900 600" width="900" height="600" xmlns="http://www.w3.org/2000/svg" xmlns:xlink="http://www.w3.org/1999/xlink" version="1.1"><g stroke-width="1" stroke-linejoin="bevel"><path d="M469 280L512 289.1L469 252.1Z" fill="#545879" stroke="#545879"></path><path d="M470 208.3L463 228.3L469 252.1Z" fill="#282b55" stroke="#282b55"></path><path d="M469 252.1L417 288.1L469 280Z" fill="#4e5274" stroke="#4e5274"></path><path d="M469 280L507 324.9L512 289.1Z" fill="#494d70" stroke="#494d70"></path><path d="M517 188.4L470 208.3L469 252.1Z" fill="#43476b" stroke="#43476b"></path><path d="M462 328.9L472 331L469 280Z" fill="#383c62" stroke="#383c62"></path><path d="M469 280L472 331L507 324.9Z" fill="#545879" stroke="#545879"></path><path d="M417 288.1L462 328.9L469 280Z" fill="#606482" stroke="#606482"></path><path d="M470 208.3L430 234.1L463 228.3Z" fill="#2d3059" stroke="#2d3059"></path><path d="M463 228.3L430 234.1L469 252.1Z" fill="#33365e" stroke="#33365e"></path><path d="M507 324.9L542 325L512 289.1Z" fill="#494d70" stroke="#494d70"></path><path d="M553 208.3L517 188.4L469 252.1Z" fill="#606482" stroke="#606482"></path><path d="M529 351.9L542 325L507 324.9Z" fill="#545879" stroke="#545879"></path><path d="M430 234.1L417 288.1L469 252.1Z" fill="#494d70" stroke="#494d70"></path><path d="M553 208.3L469 252.1L512 289.1Z" fill="#43476b" stroke="#43476b"></path><path d="M596 282.1L553 208.3L512 289.1Z" fill="#5a5e7d" stroke="#5a5e7d"></path><path d="M553 208.3L538 190.4L517 188.4Z" fill="#2d3059" stroke="#2d3059"></path><path d="M505 370.7L507 324.9L472 331Z" fill="#33365e" stroke="#33365e"></path><path d="M505 370.7L529 351.9L507 324.9Z" fill="#33365e" stroke="#33365e"></path><path d="M430 234.1L404 288L417 288.1Z" fill="#494d70" stroke="#494d70"></path><path d="M417 288.1L393 330.9L462 328.9Z" fill="#33365e" stroke="#33365e"></path><path d="M573 157.6L555 189.3L608 159.6Z" fill="#494d70" stroke="#494d70"></path><path d="M553 208.3L555 189.3L538 190.4Z" fill="#43476b" stroke="#43476b"></path><path d="M498 130.6L452 144.6L517 188.4Z" fill="#43476b" stroke="#43476b"></path><path d="M470 208.3L412 209.3L430 234.1Z" fill="#33365e" stroke="#33365e"></path><path d="M377 223.3L372 277L404 288Z" fill="#33365e" stroke="#33365e"></path><path d="M430 175.4L412 209.3L470 208.3Z" fill="#43476b" stroke="#43476b"></path><path d="M604 332.9L596 282.1L542 325Z" fill="#33365e" stroke="#33365e"></path><path d="M542 325L596 282.1L512 289.1Z" fill="#545879" stroke="#545879"></path><path d="M465 415.6L472 331L462 328.9Z" fill="#282b55" stroke="#282b55"></path><path d="M465 415.6L505 370.7L472 331Z" fill="#43476b" stroke="#43476b"></path><path d="M422 164.4L430 175.4L452 144.6Z" fill="#4e5274" stroke="#4e5274"></path><path d="M452 144.6L430 175.4L470 208.3Z" fill="#2d3059" stroke="#2d3059"></path><path d="M372 277L393 330.9L404 288Z" fill="#4e5274" stroke="#4e5274"></path><path d="M404 288L393 330.9L417 288.1Z" fill="#282b55" stroke="#282b55"></path><path d="M393 330.9L415 358.7L462 328.9Z" fill="#3e4167" stroke="#3e4167"></path><path d="M377 223.3L430 234.1L412 209.3Z" fill="#5a5e7d" stroke="#5a5e7d"></path><path d="M377 223.3L404 288L430 234.1Z" fill="#43476b" stroke="#43476b"></path><path d="M452 144.6L470 208.3L517 188.4Z" fill="#282b55" stroke="#282b55"></path><path d="M430 175.4L422 164.4L412 209.3Z" fill="#43476b" stroke="#43476b"></path><path d="M362 202.4L377 223.3L412 209.3Z" fill="#494d70" stroke="#494d70"></path><path d="M564 387.7L542 325L529 351.9Z" fill="#33365e" stroke="#33365e"></path><path d="M564 387.7L604 332.9L542 325Z" fill="#5a5e7d" stroke="#5a5e7d"></path><path d="M615 312L623 269.1L596 282.1Z" fill="#5a5e7d" stroke="#5a5e7d"></path><path d="M596 282.1L623 269.1L553 208.3Z" fill="#494d70" stroke="#494d70"></path><path d="M498 130.6L517 188.4L538 190.4Z" fill="#3e4167" stroke="#3e4167"></path><path d="M604 332.9L615 312L596 282.1Z" fill="#3e4167" stroke="#3e4167"></path><path d="M584 150.6L573 157.6L608 159.6Z" fill="#43476b" stroke="#43476b"></path><path d="M555 189.3L573 157.6L538 190.4Z" fill="#5a5e7d" stroke="#5a5e7d"></path><path d="M573 157.6L498 130.6L538 190.4Z" fill="#5a5e7d" stroke="#5a5e7d"></path><path d="M512 410.7L540 395.6L505 370.7Z" fill="#282b55" stroke="#282b55"></path><path d="M505 370.7L540 395.6L529 351.9Z" fill="#606482" stroke="#606482"></path><path d="M540 395.6L564 387.7L529 351.9Z" fill="#494d70" stroke="#494d70"></path><path d="M623 353.9L628 318L604 332.9Z" fill="#2d3059" stroke="#2d3059"></path><path d="M604 332.9L628 318L615 312Z" fill="#43476b" stroke="#43476b"></path><path d="M615 312L642 283.1L623 269.1Z" fill="#383c62" stroke="#383c62"></path><path d="M492 419.6L512 410.7L505 370.7Z" fill="#282b55" stroke="#282b55"></path><path d="M540 395.6L556 411.6L564 387.7Z" fill="#43476b" stroke="#43476b"></path><path d="M608 159.6L555 189.3L553 208.3Z" fill="#43476b" stroke="#43476b"></path><path d="M573 157.6L558 113.7L498 130.6Z" fill="#545879" stroke="#545879"></path><path d="M422 164.4L362 202.4L412 209.3Z" fill="#33365e" stroke="#33365e"></path><path d="M377 223.3L349 223.1L372 277Z" fill="#43476b" stroke="#43476b"></path><path d="M343 110.7L362 202.4L422 164.4Z" fill="#606482" stroke="#606482"></path><path d="M644 308.9L642 283.1L615 312Z" fill="#2d3059" stroke="#2d3059"></path><path d="M652 236.3L608 159.6L553 208.3Z" fill="#2d3059" stroke="#2d3059"></path><path d="M362 202.4L349 223.1L377 223.3Z" fill="#494d70" stroke="#494d70"></path><path d="M327 315L359 350.9L393 330.9Z" fill="#383c62" stroke="#383c62"></path><path d="M415 358.7L465 415.6L462 328.9Z" fill="#282b55" stroke="#282b55"></path><path d="M465 415.6L492 419.6L505 370.7Z" fill="#33365e" stroke="#33365e"></path><path d="M512 410.7L556 411.6L540 395.6Z" fill="#282b55" stroke="#282b55"></path><path d="M645 350.7L644 308.9L628 318Z" fill="#282b55" stroke="#282b55"></path><path d="M628 318L644 308.9L615 312Z" fill="#5a5e7d" stroke="#5a5e7d"></path><path d="M564 387.7L623 353.9L604 332.9Z" fill="#43476b" stroke="#43476b"></path><path d="M610 159.4L608 159.6L652 236.3Z" fill="#4e5274" stroke="#4e5274"></path><path d="M652 236.3L553 208.3L623 269.1Z" fill="#2d3059" stroke="#2d3059"></path><path d="M608 159.6L598 140.4L584 150.6Z" fill="#33365e" stroke="#33365e"></path><path d="M554 446.4L556 411.6L512 410.7Z" fill="#2d3059" stroke="#2d3059"></path><path d="M564 387.7L612 412.6L623 353.9Z" fill="#2d3059" stroke="#2d3059"></path><path d="M327 315L393 330.9L372 277Z" fill="#33365e" stroke="#33365e"></path><path d="M393 330.9L359 350.9L415 358.7Z" fill="#4e5274" stroke="#4e5274"></path><path d="M415 358.7L422 409.7L465 415.6Z" fill="#2d3059" stroke="#2d3059"></path><path d="M653 236.3L652 236.3L642 283.1Z" fill="#4e5274" stroke="#4e5274"></path><path d="M642 283.1L652 236.3L623 269.1Z" fill="#383c62" stroke="#383c62"></path><path d="M391 411.6L422 409.7L415 358.7Z" fill="#4e5274" stroke="#4e5274"></path><path d="M465 415.6L465 452.4L492 419.6Z" fill="#606482" stroke="#606482"></path><path d="M662 288L653 236.3L642 283.1Z" fill="#5a5e7d" stroke="#5a5e7d"></path><path d="M652 236.3L681 157.4L610 159.4Z" fill="#5a5e7d" stroke="#5a5e7d"></path><path d="M610 159.4L598 140.4L608 159.6Z" fill="#383c62" stroke="#383c62"></path><path d="M584 150.6L558 113.7L573 157.6Z" fill="#606482" stroke="#606482"></path><path d="M598 140.4L558 113.7L584 150.6Z" fill="#282b55" stroke="#282b55"></path><path d="M700 305L662 288L644 308.9Z" fill="#383c62" stroke="#383c62"></path><path d="M644 308.9L662 288L642 283.1Z" fill="#33365e" stroke="#33365e"></path><path d="M498 130.6L472 95.7L452 144.6Z" fill="#4e5274" stroke="#4e5274"></path><path d="M452 144.6L418 107.7L422 164.4Z" fill="#383c62" stroke="#383c62"></path><path d="M516 76.7L472 95.7L498 130.6Z" fill="#5a5e7d" stroke="#5a5e7d"></path><path d="M642 416.7L645 350.7L623 353.9Z" fill="#4e5274" stroke="#4e5274"></path><path d="M623 353.9L645 350.7L628 318Z" fill="#494d70" stroke="#494d70"></path><path d="M320 260.1L327 315L372 277Z" fill="#3e4167" stroke="#3e4167"></path><path d="M301 216.3L320 260.1L349 223.1Z" fill="#5a5e7d" stroke="#5a5e7d"></path><path d="M349 223.1L320 260.1L372 277Z" fill="#3e4167" stroke="#3e4167"></path><path d="M472 95.7L418 107.7L452 144.6Z" fill="#545879" stroke="#545879"></path><path d="M317 168.4L301 216.3L349 223.1Z" fill="#282b55" stroke="#282b55"></path><path d="M353 386.7L391 411.6L415 358.7Z" fill="#606482" stroke="#606482"></path><path d="M427 449.4L465 452.4L465 415.6Z" fill="#33365e" stroke="#33365e"></path><path d="M353 386.7L415 358.7L359 350.9Z" fill="#545879" stroke="#545879"></path><path d="M290 356.9L353 386.7L359 350.9Z" fill="#606482" stroke="#606482"></path><path d="M599 445.4L612 412.6L556 411.6Z" fill="#2d3059" stroke="#2d3059"></path><path d="M556 411.6L612 412.6L564 387.7Z" fill="#2d3059" stroke="#2d3059"></path><path d="M427 449.4L465 415.6L422 409.7Z" fill="#43476b" stroke="#43476b"></path><path d="M492 419.6L554 446.4L512 410.7Z" fill="#3e4167" stroke="#3e4167"></path><path d="M480 488.4L554 446.4L492 419.6Z" fill="#4e5274" stroke="#4e5274"></path><path d="M602 47.9L516 76.7L558 113.7Z" fill="#33365e" stroke="#33365e"></path><path d="M558 113.7L516 76.7L498 130.6Z" fill="#43476b" stroke="#43476b"></path><path d="M433 72.9L390 101.6L418 107.7Z" fill="#545879" stroke="#545879"></path><path d="M433 72.9L418 107.7L472 95.7Z" fill="#2d3059" stroke="#2d3059"></path><path d="M418 107.7L390 101.6L422 164.4Z" fill="#2d3059" stroke="#2d3059"></path><path d="M391 411.6L427 449.4L422 409.7Z" fill="#494d70" stroke="#494d70"></path><path d="M367 447.4L427 449.4L391 411.6Z" fill="#383c62" stroke="#383c62"></path><path d="M317 168.4L349 223.1L362 202.4Z" fill="#3e4167" stroke="#3e4167"></path><path d="M320 260.1L292 285L327 315Z" fill="#494d70" stroke="#494d70"></path><path d="M328 124.6L317 168.4L362 202.4Z" fill="#5a5e7d" stroke="#5a5e7d"></path><path d="M465 56.7L433 72.9L472 95.7Z" fill="#5a5e7d" stroke="#5a5e7d"></path><path d="M262 226.3L292 285L320 260.1Z" fill="#282b55" stroke="#282b55"></path><path d="M290 356.9L336 409.6L353 386.7Z" fill="#383c62" stroke="#383c62"></path><path d="M516 76.7L494 60.9L472 95.7Z" fill="#545879" stroke="#545879"></path><path d="M554 446.4L599 445.4L556 411.6Z" fill="#3e4167" stroke="#3e4167"></path><path d="M694 352.9L644 308.9L645 350.7Z" fill="#43476b" stroke="#43476b"></path><path d="M610 485.3L599 445.4L554 446.4Z" fill="#494d70" stroke="#494d70"></path><path d="M694 352.9L700 305L644 308.9Z" fill="#282b55" stroke="#282b55"></path><path d="M662 288L736 231.1L653 236.3Z" fill="#2d3059" stroke="#2d3059"></path><path d="M653 236.3L681 157.4L652 236.3Z" fill="#43476b" stroke="#43476b"></path><path d="M642 416.7L623 353.9L612 412.6Z" fill="#5a5e7d" stroke="#5a5e7d"></path><path d="M648 441.6L642 416.7L612 412.6Z" fill="#383c62" stroke="#383c62"></path><path d="M494 60.9L465 56.7L472 95.7Z" fill="#3e4167" stroke="#3e4167"></path><path d="M341 79.7L359 101.6L390 101.6Z" fill="#43476b" stroke="#43476b"></path><path d="M390 101.6L343 110.7L422 164.4Z" fill="#282b55" stroke="#282b55"></path><path d="M341 79.7L390 101.6L409 25.9Z" fill="#2d3059" stroke="#2d3059"></path><path d="M290 356.9L359 350.9L327 315Z" fill="#545879" stroke="#545879"></path><path d="M353 386.7L336 409.6L391 411.6Z" fill="#5a5e7d" stroke="#5a5e7d"></path><path d="M722 188.4L681 157.4L653 236.3Z" fill="#33365e" stroke="#33365e"></path><path d="M610 159.4L664 102.7L598 140.4Z" fill="#2d3059" stroke="#2d3059"></path><path d="M598 140.4L613 75.7L558 113.7Z" fill="#383c62" stroke="#383c62"></path><path d="M516 76.7L535 9.9L494 60.9Z" fill="#43476b" stroke="#43476b"></path><path d="M359 101.6L343 110.7L390 101.6Z" fill="#2d3059" stroke="#2d3059"></path><path d="M642 416.7L694 352.9L645 350.7Z" fill="#2d3059" stroke="#2d3059"></path><path d="M343 110.7L328 124.6L362 202.4Z" fill="#3e4167" stroke="#3e4167"></path><path d="M256 186.3L262 226.3L301 216.3Z" fill="#4e5274" stroke="#4e5274"></path><path d="M336 409.6L367 447.4L391 411.6Z" fill="#43476b" stroke="#43476b"></path><path d="M433 496.3L480 488.4L465 452.4Z" fill="#383c62" stroke="#383c62"></path><path d="M433 496.3L465 452.4L427 449.4Z" fill="#606482" stroke="#606482"></path><path d="M465 452.4L480 488.4L492 419.6Z" fill="#4e5274" stroke="#4e5274"></path><path d="M292 285L290 356.9L327 315Z" fill="#2d3059" stroke="#2d3059"></path><path d="M336 409.6L340 456.6L367 447.4Z" fill="#494d70" stroke="#494d70"></path><path d="M664 102.7L613 75.7L598 140.4Z" fill="#33365e" stroke="#33365e"></path><path d="M453 0L409 25.9L465 56.7Z" fill="#33365e" stroke="#33365e"></path><path d="M599 445.4L648 441.6L612 412.6Z" fill="#33365e" stroke="#33365e"></path><path d="M721 461.6L752 373.7L694 352.9Z" fill="#5a5e7d" stroke="#5a5e7d"></path><path d="M610 485.3L648 441.6L599 445.4Z" fill="#5a5e7d" stroke="#5a5e7d"></path><path d="M681 157.4L664 102.7L610 159.4Z" fill="#3e4167" stroke="#3e4167"></path><path d="M275 163.4L301 216.3L317 168.4Z" fill="#282b55" stroke="#282b55"></path><path d="M301 216.3L262 226.3L320 260.1Z" fill="#606482" stroke="#606482"></path><path d="M256 335.9L267 361.7L290 356.9Z" fill="#606482" stroke="#606482"></path><path d="M367 447.4L433 496.3L427 449.4Z" fill="#545879" stroke="#545879"></path><path d="M262 226.3L254 267.1L292 285Z" fill="#33365e" stroke="#33365e"></path><path d="M736 231.1L722 188.4L653 236.3Z" fill="#494d70" stroke="#494d70"></path><path d="M681 157.4L670 99.6L664 102.7Z" fill="#545879" stroke="#545879"></path><path d="M736 231.1L662 288L700 305Z" fill="#545879" stroke="#545879"></path><path d="M520 509.3L537 503.4L480 488.4Z" fill="#5a5e7d" stroke="#5a5e7d"></path><path d="M480 488.4L537 503.4L554 446.4Z" fill="#494d70" stroke="#494d70"></path><path d="M343 110.7L341 79.7L328 124.6Z" fill="#383c62" stroke="#383c62"></path><path d="M328 124.6L275 163.4L317 168.4Z" fill="#606482" stroke="#606482"></path><path d="M359 101.6L341 79.7L343 110.7Z" fill="#494d70" stroke="#494d70"></path><path d="M409 25.9L390 101.6L433 72.9Z" fill="#545879" stroke="#545879"></path><path d="M721 148.6L670 99.6L681 157.4Z" fill="#494d70" stroke="#494d70"></path><path d="M664 102.7L665 71.9L613 75.7Z" fill="#383c62" stroke="#383c62"></path><path d="M271 161.6L275 163.4L328 124.6Z" fill="#282b55" stroke="#282b55"></path><path d="M665 71.9L602 47.9L613 75.7Z" fill="#5a5e7d" stroke="#5a5e7d"></path><path d="M613 75.7L602 47.9L558 113.7Z" fill="#494d70" stroke="#494d70"></path><path d="M742 228.3L736 231.1L746 235.3Z" fill="#43476b" stroke="#43476b"></path><path d="M461 532.3L520 509.3L480 488.4Z" fill="#33365e" stroke="#33365e"></path><path d="M304 462.4L340 456.6L336 409.6Z" fill="#5a5e7d" stroke="#5a5e7d"></path><path d="M367 447.4L336 493.3L433 496.3Z" fill="#4e5274" stroke="#4e5274"></path><path d="M242 141.4L271 161.6L240 106.7Z" fill="#545879" stroke="#545879"></path><path d="M275 163.4L256 186.3L301 216.3Z" fill="#2d3059" stroke="#2d3059"></path><path d="M262 226.3L223 223.1L254 267.1Z" fill="#4e5274" stroke="#4e5274"></path><path d="M256 335.9L290 356.9L292 285Z" fill="#5a5e7d" stroke="#5a5e7d"></path><path d="M290 356.9L289 404.7L336 409.6Z" fill="#494d70" stroke="#494d70"></path><path d="M537 503.4L610 485.3L554 446.4Z" fill="#282b55" stroke="#282b55"></path><path d="M597 515.3L610 485.3L537 503.4Z" fill="#2d3059" stroke="#2d3059"></path><path d="M267 361.7L289 404.7L290 356.9Z" fill="#4e5274" stroke="#4e5274"></path><path d="M254 267.1L256 335.9L292 285Z" fill="#282b55" stroke="#282b55"></path><path d="M746 235.3L736 231.1L749 266.1Z" fill="#43476b" stroke="#43476b"></path><path d="M736 231.1L742 228.3L722 188.4Z" fill="#606482" stroke="#606482"></path><path d="M271 161.6L256 186.3L275 163.4Z" fill="#2d3059" stroke="#2d3059"></path><path d="M752 373.7L744 309.9L694 352.9Z" fill="#33365e" stroke="#33365e"></path><path d="M694 352.9L744 309.9L700 305Z" fill="#2d3059" stroke="#2d3059"></path><path d="M749 266.1L736 231.1L700 305Z" fill="#383c62" stroke="#383c62"></path><path d="M731 131.6L721 148.6L766 170.4Z" fill="#5a5e7d" stroke="#5a5e7d"></path><path d="M744 309.9L749 266.1L700 305Z" fill="#494d70" stroke="#494d70"></path><path d="M472 0L465 56.7L494 60.9Z" fill="#33365e" stroke="#33365e"></path><path d="M465 56.7L409 25.9L433 72.9Z" fill="#33365e" stroke="#33365e"></path><path d="M721 148.6L722 188.4L766 170.4Z" fill="#4e5274" stroke="#4e5274"></path><path d="M722 188.4L721 148.6L681 157.4Z" fill="#3e4167" stroke="#3e4167"></path><path d="M732 65.7L665 71.9L670 99.6Z" fill="#2d3059" stroke="#2d3059"></path><path d="M670 99.6L665 71.9L664 102.7Z" fill="#4e5274" stroke="#4e5274"></path><path d="M549 0L535 9.9L552 0Z" fill="#282b55" stroke="#282b55"></path><path d="M602 47.9L535 9.9L516 76.7Z" fill="#4e5274" stroke="#4e5274"></path><path d="M535 9.9L472 0L494 60.9Z" fill="#282b55" stroke="#282b55"></path><path d="M415 552.1L461 532.3L433 496.3Z" fill="#4e5274" stroke="#4e5274"></path><path d="M433 496.3L461 532.3L480 488.4Z" fill="#3e4167" stroke="#3e4167"></path><path d="M571 544.1L597 515.3L537 503.4Z" fill="#282b55" stroke="#282b55"></path><path d="M472 0L453 0L465 56.7Z" fill="#3e4167" stroke="#3e4167"></path><path d="M571 544.1L537 503.4L545 561.1Z" fill="#545879" stroke="#545879"></path><path d="M610 485.3L682 476.4L648 441.6Z" fill="#3e4167" stroke="#3e4167"></path><path d="M721 461.6L694 352.9L642 416.7Z" fill="#43476b" stroke="#43476b"></path><path d="M552 0L535 9.9L602 47.9Z" fill="#5a5e7d" stroke="#5a5e7d"></path><path d="M535 9.9L549 0L472 0Z" fill="#43476b" stroke="#43476b"></path><path d="M766 170.4L722 188.4L742 228.3Z" fill="#33365e" stroke="#33365e"></path><path d="M721 148.6L731 131.6L670 99.6Z" fill="#4e5274" stroke="#4e5274"></path><path d="M645 0L552 0L602 47.9Z" fill="#5a5e7d" stroke="#5a5e7d"></path><path d="M289 404.7L304 462.4L336 409.6Z" fill="#33365e" stroke="#33365e"></path><path d="M340 456.6L336 493.3L367 447.4Z" fill="#33365e" stroke="#33365e"></path><path d="M264 443.6L304 462.4L289 404.7Z" fill="#383c62" stroke="#383c62"></path><path d="M264 443.6L289 404.7L245 437.4Z" fill="#33365e" stroke="#33365e"></path><path d="M177 181.4L223 223.1L256 186.3Z" fill="#2d3059" stroke="#2d3059"></path><path d="M256 186.3L223 223.1L262 226.3Z" fill="#4e5274" stroke="#4e5274"></path><path d="M254 267.1L210 318L256 335.9Z" fill="#33365e" stroke="#33365e"></path><path d="M320 495.3L336 493.3L340 456.6Z" fill="#494d70" stroke="#494d70"></path><path d="M721 461.6L642 416.7L648 441.6Z" fill="#383c62" stroke="#383c62"></path><path d="M744 309.9L777 303L749 266.1Z" fill="#282b55" stroke="#282b55"></path><path d="M240 106.7L271 161.6L328 124.6Z" fill="#5a5e7d" stroke="#5a5e7d"></path><path d="M271 161.6L242 141.4L256 186.3Z" fill="#282b55" stroke="#282b55"></path><path d="M240 106.7L328 124.6L341 79.7Z" fill="#494d70" stroke="#494d70"></path><path d="M640 526.1L682 476.4L610 485.3Z" fill="#33365e" stroke="#33365e"></path><path d="M752 373.7L777 303L744 309.9Z" fill="#383c62" stroke="#383c62"></path><path d="M749 266.1L781 281.1L746 235.3Z" fill="#494d70" stroke="#494d70"></path><path d="M746 235.3L766 170.4L742 228.3Z" fill="#545879" stroke="#545879"></path><path d="M777 303L781 281.1L749 266.1Z" fill="#282b55" stroke="#282b55"></path><path d="M825 200.3L766 170.4L746 235.3Z" fill="#282b55" stroke="#282b55"></path><path d="M304 462.4L320 495.3L340 456.6Z" fill="#33365e" stroke="#33365e"></path><path d="M336 493.3L402 539.3L433 496.3Z" fill="#3e4167" stroke="#3e4167"></path><path d="M545 561.1L537 503.4L520 509.3Z" fill="#43476b" stroke="#43476b"></path><path d="M597 515.3L640 526.1L610 485.3Z" fill="#282b55" stroke="#282b55"></path><path d="M381 600L402 539.3L337 584.1Z" fill="#5a5e7d" stroke="#5a5e7d"></path><path d="M474 579.1L545 561.1L520 509.3Z" fill="#383c62" stroke="#383c62"></path><path d="M201 309L210 318L254 267.1Z" fill="#33365e" stroke="#33365e"></path><path d="M256 335.9L208 324.9L267 361.7Z" fill="#282b55" stroke="#282b55"></path><path d="M304 462.4L287 516.3L320 495.3Z" fill="#43476b" stroke="#43476b"></path><path d="M453 0L378 0L409 25.9Z" fill="#545879" stroke="#545879"></path><path d="M409 25.9L340 10.9L341 79.7Z" fill="#494d70" stroke="#494d70"></path><path d="M245 437.4L289 404.7L267 361.7Z" fill="#282b55" stroke="#282b55"></path><path d="M201 309L208 324.9L210 318Z" fill="#383c62" stroke="#383c62"></path><path d="M210 318L208 324.9L256 335.9Z" fill="#33365e" stroke="#33365e"></path><path d="M664 0L648 15.9L665 71.9Z" fill="#33365e" stroke="#33365e"></path><path d="M665 71.9L648 15.9L602 47.9Z" fill="#383c62" stroke="#383c62"></path><path d="M645 0L648 15.9L664 0Z" fill="#606482" stroke="#606482"></path><path d="M187 229.3L201 309L254 267.1Z" fill="#2d3059" stroke="#2d3059"></path><path d="M187 229.3L254 267.1L223 223.1Z" fill="#545879" stroke="#545879"></path><path d="M409 600L415 552.1L381 600Z" fill="#33365e" stroke="#33365e"></path><path d="M402 539.3L415 552.1L433 496.3Z" fill="#5a5e7d" stroke="#5a5e7d"></path><path d="M571 544.1L640 526.1L597 515.3Z" fill="#494d70" stroke="#494d70"></path><path d="M378 0L340 10.9L409 25.9Z" fill="#383c62" stroke="#383c62"></path><path d="M360 0L340 10.9L378 0Z" fill="#545879" stroke="#545879"></path><path d="M704 501.3L721 461.6L682 476.4Z" fill="#4e5274" stroke="#4e5274"></path><path d="M682 476.4L721 461.6L648 441.6Z" fill="#33365e" stroke="#33365e"></path><path d="M752 373.7L791 382.7L777 303Z" fill="#5a5e7d" stroke="#5a5e7d"></path><path d="M474 579.1L520 509.3L461 532.3Z" fill="#43476b" stroke="#43476b"></path><path d="M571 544.1L601 600L640 526.1Z" fill="#2d3059" stroke="#2d3059"></path><path d="M290 20.9L240 106.7L341 79.7Z" fill="#33365e" stroke="#33365e"></path><path d="M177 181.4L187 229.3L223 223.1Z" fill="#5a5e7d" stroke="#5a5e7d"></path><path d="M207 405.6L245 437.4L267 361.7Z" fill="#5a5e7d" stroke="#5a5e7d"></path><path d="M257 503.4L287 516.3L304 462.4Z" fill="#2d3059" stroke="#2d3059"></path><path d="M207 405.6L267 361.7L208 324.9Z" fill="#33365e" stroke="#33365e"></path><path d="M732 65.7L670 99.6L731 131.6Z" fill="#43476b" stroke="#43476b"></path><path d="M648 15.9L645 0L602 47.9Z" fill="#33365e" stroke="#33365e"></path><path d="M734 484.4L737 455.4L721 461.6Z" fill="#3e4167" stroke="#3e4167"></path><path d="M721 461.6L737 455.4L752 373.7Z" fill="#3e4167" stroke="#3e4167"></path><path d="M177 181.4L256 186.3L242 141.4Z" fill="#3e4167" stroke="#3e4167"></path><path d="M446 600L448 573.1L409 600Z" fill="#43476b" stroke="#43476b"></path><path d="M415 552.1L448 573.1L461 532.3Z" fill="#606482" stroke="#606482"></path><path d="M747 75.7L732 65.7L731 131.6Z" fill="#383c62" stroke="#383c62"></path><path d="M448 573.1L474 579.1L461 532.3Z" fill="#2d3059" stroke="#2d3059"></path><path d="M640 526.1L704 501.3L682 476.4Z" fill="#33365e" stroke="#33365e"></path><path d="M725 23.9L664 0L665 71.9Z" fill="#33365e" stroke="#33365e"></path><path d="M783 67.9L747 75.7L790 75.9Z" fill="#606482" stroke="#606482"></path><path d="M732 65.7L725 23.9L665 71.9Z" fill="#282b55" stroke="#282b55"></path><path d="M214 106.7L218 108.6L240 106.7Z" fill="#282b55" stroke="#282b55"></path><path d="M240 106.7L218 108.6L242 141.4Z" fill="#494d70" stroke="#494d70"></path><path d="M218 108.6L208 126.6L242 141.4Z" fill="#4e5274" stroke="#4e5274"></path><path d="M797 418.7L752 373.7L737 455.4Z" fill="#2d3059" stroke="#2d3059"></path><path d="M797 418.7L791 382.7L752 373.7Z" fill="#494d70" stroke="#494d70"></path><path d="M777 303L812 295L781 281.1Z" fill="#545879" stroke="#545879"></path><path d="M821 310.9L812 295L777 303Z" fill="#545879" stroke="#545879"></path><path d="M781 281.1L825 200.3L746 235.3Z" fill="#43476b" stroke="#43476b"></path><path d="M766 170.4L812 146.4L731 131.6Z" fill="#5a5e7d" stroke="#5a5e7d"></path><path d="M285 0L290 20.9L340 10.9Z" fill="#2d3059" stroke="#2d3059"></path><path d="M340 10.9L290 20.9L341 79.7Z" fill="#606482" stroke="#606482"></path><path d="M171 351.9L207 405.6L208 324.9Z" fill="#4e5274" stroke="#4e5274"></path><path d="M171 351.9L208 324.9L201 309Z" fill="#494d70" stroke="#494d70"></path><path d="M229 43.9L214 106.7L240 106.7Z" fill="#4e5274" stroke="#4e5274"></path><path d="M218 108.6L214 106.7L208 126.6Z" fill="#494d70" stroke="#494d70"></path><path d="M704 501.3L734 484.4L721 461.6Z" fill="#4e5274" stroke="#4e5274"></path><path d="M257 503.4L304 462.4L264 443.6Z" fill="#5a5e7d" stroke="#5a5e7d"></path><path d="M337 584.1L402 539.3L336 493.3Z" fill="#33365e" stroke="#33365e"></path><path d="M257 503.4L264 443.6L245 437.4Z" fill="#43476b" stroke="#43476b"></path><path d="M207 405.6L218 438.6L245 437.4Z" fill="#494d70" stroke="#494d70"></path><path d="M697 536.1L709 514.3L704 501.3Z" fill="#494d70" stroke="#494d70"></path><path d="M704 501.3L709 514.3L734 484.4Z" fill="#383c62" stroke="#383c62"></path><path d="M697 536.1L704 501.3L640 526.1Z" fill="#383c62" stroke="#383c62"></path><path d="M167 237.1L166 269.1L187 229.3Z" fill="#282b55" stroke="#282b55"></path><path d="M187 229.3L166 269.1L201 309Z" fill="#3e4167" stroke="#3e4167"></path><path d="M151 188.3L131 103.6L111 162.4Z" fill="#282b55" stroke="#282b55"></path><path d="M208 126.6L177 181.4L242 141.4Z" fill="#4e5274" stroke="#4e5274"></path><path d="M151 188.3L167 237.1L187 229.3Z" fill="#5a5e7d" stroke="#5a5e7d"></path><path d="M825 326L821 310.9L777 303Z" fill="#383c62" stroke="#383c62"></path><path d="M812 295L825 200.3L781 281.1Z" fill="#606482" stroke="#606482"></path><path d="M446 600L481 600L474 579.1Z" fill="#3e4167" stroke="#3e4167"></path><path d="M474 579.1L524 600L545 561.1Z" fill="#4e5274" stroke="#4e5274"></path><path d="M545 561.1L601 600L571 544.1Z" fill="#2d3059" stroke="#2d3059"></path><path d="M446 600L474 579.1L448 573.1Z" fill="#4e5274" stroke="#4e5274"></path><path d="M783 67.9L725 23.9L732 65.7Z" fill="#606482" stroke="#606482"></path><path d="M142 333.9L171 351.9L201 309Z" fill="#494d70" stroke="#494d70"></path><path d="M207 405.6L192 410.7L218 438.6Z" fill="#606482" stroke="#606482"></path><path d="M481 600L524 600L474 579.1Z" fill="#545879" stroke="#545879"></path><path d="M171 351.9L192 410.7L207 405.6Z" fill="#282b55" stroke="#282b55"></path><path d="M218 438.6L257 503.4L245 437.4Z" fill="#4e5274" stroke="#4e5274"></path><path d="M189 449.4L257 503.4L218 438.6Z" fill="#43476b" stroke="#43476b"></path><path d="M409 600L448 573.1L415 552.1Z" fill="#2d3059" stroke="#2d3059"></path><path d="M823 360.7L825 326L777 303Z" fill="#33365e" stroke="#33365e"></path><path d="M823 360.7L777 303L791 382.7Z" fill="#545879" stroke="#545879"></path><path d="M825 200.3L877 233.1L867 203.3Z" fill="#4e5274" stroke="#4e5274"></path><path d="M857 191.4L825 200.3L867 203.3Z" fill="#43476b" stroke="#43476b"></path><path d="M747 75.7L783 67.9L732 65.7Z" fill="#383c62" stroke="#383c62"></path><path d="M415 552.1L402 539.3L381 600Z" fill="#606482" stroke="#606482"></path><path d="M812 489.4L791 450.6L734 484.4Z" fill="#5a5e7d" stroke="#5a5e7d"></path><path d="M655 600L697 536.1L640 526.1Z" fill="#606482" stroke="#606482"></path><path d="M360 0L285 0L340 10.9Z" fill="#606482" stroke="#606482"></path><path d="M290 20.9L229 43.9L240 106.7Z" fill="#43476b" stroke="#43476b"></path><path d="M791 450.6L737 455.4L734 484.4Z" fill="#43476b" stroke="#43476b"></path><path d="M791 450.6L797 418.7L737 455.4Z" fill="#33365e" stroke="#33365e"></path><path d="M825 200.3L812 146.4L766 170.4Z" fill="#545879" stroke="#545879"></path><path d="M821 399.6L823 360.7L791 382.7Z" fill="#5a5e7d" stroke="#5a5e7d"></path><path d="M336 493.3L320 495.3L337 584.1Z" fill="#545879" stroke="#545879"></path><path d="M260 9.9L229 43.9L290 20.9Z" fill="#2d3059" stroke="#2d3059"></path><path d="M131 103.6L177 181.4L208 126.6Z" fill="#383c62" stroke="#383c62"></path><path d="M285 0L260 9.9L290 20.9Z" fill="#383c62" stroke="#383c62"></path><path d="M745 543.1L734 484.4L709 514.3Z" fill="#282b55" stroke="#282b55"></path><path d="M797 418.7L821 399.6L791 382.7Z" fill="#2d3059" stroke="#2d3059"></path><path d="M790 75.9L747 75.7L731 131.6Z" fill="#3e4167" stroke="#3e4167"></path><path d="M524 600L601 600L545 561.1Z" fill="#4e5274" stroke="#4e5274"></path><path d="M812 146.4L790 75.9L731 131.6Z" fill="#545879" stroke="#545879"></path><path d="M170 87.7L208 126.6L214 106.7Z" fill="#4e5274" stroke="#4e5274"></path><path d="M177 181.4L151 188.3L187 229.3Z" fill="#2d3059" stroke="#2d3059"></path><path d="M94 251.1L140 307L166 269.1Z" fill="#33365e" stroke="#33365e"></path><path d="M166 269.1L140 307L201 309Z" fill="#494d70" stroke="#494d70"></path><path d="M337 584.1L320 495.3L300 577.1Z" fill="#4e5274" stroke="#4e5274"></path><path d="M823 474.4L821 399.6L797 418.7Z" fill="#4e5274" stroke="#4e5274"></path><path d="M865 311.9L821 310.9L825 326Z" fill="#43476b" stroke="#43476b"></path><path d="M300 577.1L320 495.3L287 516.3Z" fill="#43476b" stroke="#43476b"></path><path d="M164 404.7L189 449.4L192 410.7Z" fill="#282b55" stroke="#282b55"></path><path d="M192 410.7L189 449.4L218 438.6Z" fill="#43476b" stroke="#43476b"></path><path d="M257 503.4L269 549.1L287 516.3Z" fill="#383c62" stroke="#383c62"></path><path d="M94 251.1L166 269.1L167 237.1Z" fill="#4e5274" stroke="#4e5274"></path><path d="M171 351.9L164 404.7L192 410.7Z" fill="#43476b" stroke="#43476b"></path><path d="M129 390.7L164 404.7L171 351.9Z" fill="#282b55" stroke="#282b55"></path><path d="M140 307L142 333.9L201 309Z" fill="#2d3059" stroke="#2d3059"></path><path d="M260 9.9L253 0L229 43.9Z" fill="#5a5e7d" stroke="#5a5e7d"></path><path d="M285 0L253 0L260 9.9Z" fill="#606482" stroke="#606482"></path><path d="M601 600L633 600L640 526.1Z" fill="#2d3059" stroke="#2d3059"></path><path d="M697 536.1L745 543.1L709 514.3Z" fill="#545879" stroke="#545879"></path><path d="M251 546.1L269 549.1L257 503.4Z" fill="#383c62" stroke="#383c62"></path><path d="M857 191.4L834 128.6L812 146.4Z" fill="#282b55" stroke="#282b55"></path><path d="M812 146.4L834 128.6L790 75.9Z" fill="#282b55" stroke="#282b55"></path><path d="M857 191.4L812 146.4L825 200.3Z" fill="#5a5e7d" stroke="#5a5e7d"></path><path d="M269 549.1L300 577.1L287 516.3Z" fill="#3e4167" stroke="#3e4167"></path><path d="M337 584.1L318 600L381 600Z" fill="#2d3059" stroke="#2d3059"></path><path d="M189 449.4L235 526.3L257 503.4Z" fill="#33365e" stroke="#33365e"></path><path d="M269 549.1L257 600L300 577.1Z" fill="#4e5274" stroke="#4e5274"></path><path d="M865 311.9L825 326L823 360.7Z" fill="#4e5274" stroke="#4e5274"></path><path d="M865 311.9L812 295L821 310.9Z" fill="#282b55" stroke="#282b55"></path><path d="M161 22.9L170 87.7L229 43.9Z" fill="#545879" stroke="#545879"></path><path d="M229 43.9L170 87.7L214 106.7Z" fill="#33365e" stroke="#33365e"></path><path d="M633 600L655 600L640 526.1Z" fill="#5a5e7d" stroke="#5a5e7d"></path><path d="M758 0L753 0L725 23.9Z" fill="#606482" stroke="#606482"></path><path d="M725 23.9L753 0L664 0Z" fill="#4e5274" stroke="#4e5274"></path><path d="M758 0L725 23.9L783 67.9Z" fill="#5a5e7d" stroke="#5a5e7d"></path><path d="M758 0L783 67.9L782 0Z" fill="#2d3059" stroke="#2d3059"></path><path d="M235 526.3L251 546.1L257 503.4Z" fill="#606482" stroke="#606482"></path><path d="M900 354.9L865 311.9L823 360.7Z" fill="#4e5274" stroke="#4e5274"></path><path d="M762 561.1L745 543.1L725 600Z" fill="#3e4167" stroke="#3e4167"></path><path d="M791 450.6L823 474.4L797 418.7Z" fill="#33365e" stroke="#33365e"></path><path d="M824 78.7L783 67.9L790 75.9Z" fill="#494d70" stroke="#494d70"></path><path d="M257 600L318 600L300 577.1Z" fill="#383c62" stroke="#383c62"></path><path d="M300 577.1L318 600L337 584.1Z" fill="#5a5e7d" stroke="#5a5e7d"></path><path d="M877 233.1L825 200.3L812 295Z" fill="#3e4167" stroke="#3e4167"></path><path d="M880 116.7L859 98.6L834 128.6Z" fill="#4e5274" stroke="#4e5274"></path><path d="M859 98.6L824 78.7L834 128.6Z" fill="#606482" stroke="#606482"></path><path d="M834 128.6L824 78.7L790 75.9Z" fill="#4e5274" stroke="#4e5274"></path><path d="M865 311.9L877 233.1L812 295Z" fill="#606482" stroke="#606482"></path><path d="M138 481.4L158 507.3L189 449.4Z" fill="#606482" stroke="#606482"></path><path d="M233 600L251 546.1L206 600Z" fill="#5a5e7d" stroke="#5a5e7d"></path><path d="M116 365.9L129 390.7L171 351.9Z" fill="#3e4167" stroke="#3e4167"></path><path d="M116 365.9L171 351.9L142 333.9Z" fill="#282b55" stroke="#282b55"></path><path d="M116 365.9L142 333.9L71 316Z" fill="#4e5274" stroke="#4e5274"></path><path d="M762 561.1L780 526.3L745 543.1Z" fill="#3e4167" stroke="#3e4167"></path><path d="M745 543.1L780 526.3L734 484.4Z" fill="#545879" stroke="#545879"></path><path d="M821 399.6L900 354.9L823 360.7Z" fill="#5a5e7d" stroke="#5a5e7d"></path><path d="M253 0L212 0L229 43.9Z" fill="#5a5e7d" stroke="#5a5e7d"></path><path d="M780 526.3L812 489.4L734 484.4Z" fill="#33365e" stroke="#33365e"></path><path d="M141 74.9L149 88.7L170 87.7Z" fill="#383c62" stroke="#383c62"></path><path d="M170 87.7L131 103.6L208 126.6Z" fill="#4e5274" stroke="#4e5274"></path><path d="M71 316L142 333.9L140 307Z" fill="#3e4167" stroke="#3e4167"></path><path d="M812 489.4L823 474.4L791 450.6Z" fill="#3e4167" stroke="#3e4167"></path><path d="M94 251.1L167 237.1L89 227.3Z" fill="#33365e" stroke="#33365e"></path><path d="M825 0L782 0L783 67.9Z" fill="#33365e" stroke="#33365e"></path><path d="M131 103.6L151 188.3L177 181.4Z" fill="#3e4167" stroke="#3e4167"></path><path d="M141 74.9L131 103.6L149 88.7Z" fill="#5a5e7d" stroke="#5a5e7d"></path><path d="M149 88.7L131 103.6L170 87.7Z" fill="#282b55" stroke="#282b55"></path><path d="M725 600L745 543.1L697 536.1Z" fill="#43476b" stroke="#43476b"></path><path d="M780 526.3L832 507.3L812 489.4Z" fill="#494d70" stroke="#494d70"></path><path d="M812 489.4L832 507.3L823 474.4Z" fill="#4e5274" stroke="#4e5274"></path><path d="M89 227.3L167 237.1L151 188.3Z" fill="#282b55" stroke="#282b55"></path><path d="M880 116.7L834 128.6L857 191.4Z" fill="#43476b" stroke="#43476b"></path><path d="M824 78.7L825 0L783 67.9Z" fill="#4e5274" stroke="#4e5274"></path><path d="M900 187.4L857 191.4L867 203.3Z" fill="#545879" stroke="#545879"></path><path d="M161 22.9L141 74.9L170 87.7Z" fill="#5a5e7d" stroke="#5a5e7d"></path><path d="M900 280L900 256.1L877 233.1Z" fill="#2d3059" stroke="#2d3059"></path><path d="M877 233.1L900 224.3L867 203.3Z" fill="#545879" stroke="#545879"></path><path d="M900 280L877 233.1L865 311.9Z" fill="#383c62" stroke="#383c62"></path><path d="M655 600L725 600L697 536.1Z" fill="#5a5e7d" stroke="#5a5e7d"></path><path d="M900 354.9L900 280L865 311.9Z" fill="#5a5e7d" stroke="#5a5e7d"></path><path d="M111 162.4L89 227.3L151 188.3Z" fill="#282b55" stroke="#282b55"></path><path d="M94 251.1L78 284L140 307Z" fill="#545879" stroke="#545879"></path><path d="M900 256.1L900 224.3L877 233.1Z" fill="#282b55" stroke="#282b55"></path><path d="M74 160.4L104 144.6L55 144.6Z" fill="#545879" stroke="#545879"></path><path d="M131 103.6L104 144.6L111 162.4Z" fill="#2d3059" stroke="#2d3059"></path><path d="M111 162.4L74 160.4L89 227.3Z" fill="#33365e" stroke="#33365e"></path><path d="M233 600L257 600L251 546.1Z" fill="#3e4167" stroke="#3e4167"></path><path d="M251 546.1L257 600L269 549.1Z" fill="#2d3059" stroke="#2d3059"></path><path d="M158 507.3L235 526.3L189 449.4Z" fill="#33365e" stroke="#33365e"></path><path d="M212 0L161 22.9L229 43.9Z" fill="#3e4167" stroke="#3e4167"></path><path d="M55 144.6L104 144.6L57 115.7Z" fill="#282b55" stroke="#282b55"></path><path d="M900 224.3L900 187.4L867 203.3Z" fill="#43476b" stroke="#43476b"></path><path d="M900 187.4L880 116.7L857 191.4Z" fill="#545879" stroke="#545879"></path><path d="M886 12.9L825 0L824 78.7Z" fill="#494d70" stroke="#494d70"></path><path d="M138 481.4L164 404.7L104 414.6Z" fill="#3e4167" stroke="#3e4167"></path><path d="M138 481.4L189 449.4L164 404.7Z" fill="#383c62" stroke="#383c62"></path><path d="M835 541.1L832 507.3L780 526.3Z" fill="#282b55" stroke="#282b55"></path><path d="M900 412.7L900 354.9L821 399.6Z" fill="#5a5e7d" stroke="#5a5e7d"></path><path d="M835 541.1L780 526.3L762 561.1Z" fill="#545879" stroke="#545879"></path><path d="M880 446.6L821 399.6L823 474.4Z" fill="#282b55" stroke="#282b55"></path><path d="M104 414.6L164 404.7L129 390.7Z" fill="#494d70" stroke="#494d70"></path><path d="M104 414.6L129 390.7L91 379.7Z" fill="#545879" stroke="#545879"></path><path d="M71 316L78 284L56 311.9Z" fill="#606482" stroke="#606482"></path><path d="M55 245.3L78 284L94 251.1Z" fill="#282b55" stroke="#282b55"></path><path d="M91 379.7L129 390.7L116 365.9Z" fill="#383c62" stroke="#383c62"></path><path d="M78 375.7L91 379.7L116 365.9Z" fill="#494d70" stroke="#494d70"></path><path d="M725 600L750 600L762 561.1Z" fill="#2d3059" stroke="#2d3059"></path><path d="M212 0L168 0L161 22.9Z" fill="#3e4167" stroke="#3e4167"></path><path d="M104 144.6L131 103.6L57 115.7Z" fill="#494d70" stroke="#494d70"></path><path d="M206 600L251 546.1L235 526.3Z" fill="#606482" stroke="#606482"></path><path d="M900 75.9L824 78.7L859 98.6Z" fill="#2d3059" stroke="#2d3059"></path><path d="M900 485.3L880 446.6L823 474.4Z" fill="#2d3059" stroke="#2d3059"></path><path d="M55 245.3L94 251.1L89 227.3Z" fill="#33365e" stroke="#33365e"></path><path d="M78 284L71 316L140 307Z" fill="#494d70" stroke="#494d70"></path><path d="M138 481.4L106 529.3L158 507.3Z" fill="#4e5274" stroke="#4e5274"></path><path d="M158 554.1L206 600L235 526.3Z" fill="#2d3059" stroke="#2d3059"></path><path d="M104 414.6L123 479.4L138 481.4Z" fill="#606482" stroke="#606482"></path><path d="M76 451.6L123 479.4L104 414.6Z" fill="#43476b" stroke="#43476b"></path><path d="M71 316L78 375.7L116 365.9Z" fill="#4e5274" stroke="#4e5274"></path><path d="M91 379.7L78 375.7L104 414.6Z" fill="#3e4167" stroke="#3e4167"></path><path d="M880 446.6L900 412.7L821 399.6Z" fill="#43476b" stroke="#43476b"></path><path d="M131 103.6L63 50.9L57 115.7Z" fill="#545879" stroke="#545879"></path><path d="M104 144.6L74 160.4L111 162.4Z" fill="#545879" stroke="#545879"></path><path d="M900 187.4L900 108.6L880 116.7Z" fill="#33365e" stroke="#33365e"></path><path d="M880 116.7L900 98.7L859 98.6Z" fill="#383c62" stroke="#383c62"></path><path d="M750 600L776 600L762 561.1Z" fill="#5a5e7d" stroke="#5a5e7d"></path><path d="M900 485.3L900 471.4L880 446.6Z" fill="#606482" stroke="#606482"></path><path d="M776 600L835 541.1L762 561.1Z" fill="#4e5274" stroke="#4e5274"></path><path d="M880 446.6L900 438.6L900 412.7Z" fill="#494d70" stroke="#494d70"></path><path d="M900 108.6L900 98.7L880 116.7Z" fill="#2d3059" stroke="#2d3059"></path><path d="M74 160.4L55 245.3L89 227.3Z" fill="#545879" stroke="#545879"></path><path d="M71 316L56 311.9L78 375.7Z" fill="#5a5e7d" stroke="#5a5e7d"></path><path d="M900 471.4L900 438.6L880 446.6Z" fill="#2d3059" stroke="#2d3059"></path><path d="M23 250.1L56 311.9L78 284Z" fill="#33365e" stroke="#33365e"></path><path d="M158 554.1L235 526.3L158 507.3Z" fill="#606482" stroke="#606482"></path><path d="M106 529.3L158 554.1L158 507.3Z" fill="#494d70" stroke="#494d70"></path><path d="M837 600L841 546.3L835 541.1Z" fill="#545879" stroke="#545879"></path><path d="M835 541.1L841 546.3L832 507.3Z" fill="#2d3059" stroke="#2d3059"></path><path d="M900 98.7L900 75.9L859 98.6Z" fill="#606482" stroke="#606482"></path><path d="M900 485.3L823 474.4L832 507.3Z" fill="#4e5274" stroke="#4e5274"></path><path d="M0 190.3L23 250.1L55 245.3Z" fill="#383c62" stroke="#383c62"></path><path d="M131 103.6L141 74.9L63 50.9Z" fill="#494d70" stroke="#494d70"></path><path d="M39 408.6L76 451.6L104 414.6Z" fill="#2d3059" stroke="#2d3059"></path><path d="M123 600L155 586.1L158 554.1Z" fill="#494d70" stroke="#494d70"></path><path d="M39 408.6L104 414.6L78 375.7Z" fill="#43476b" stroke="#43476b"></path><path d="M841 546.3L900 485.3L832 507.3Z" fill="#282b55" stroke="#282b55"></path><path d="M116 0L141 74.9L161 22.9Z" fill="#2d3059" stroke="#2d3059"></path><path d="M168 0L116 0L161 22.9Z" fill="#5a5e7d" stroke="#5a5e7d"></path><path d="M900 75.9L886 12.9L824 78.7Z" fill="#43476b" stroke="#43476b"></path><path d="M106 529.3L138 481.4L123 479.4Z" fill="#3e4167" stroke="#3e4167"></path><path d="M158 554.1L155 586.1L206 600Z" fill="#43476b" stroke="#43476b"></path><path d="M67 483.3L106 529.3L123 479.4Z" fill="#2d3059" stroke="#2d3059"></path><path d="M22 153.4L74 160.4L55 144.6Z" fill="#545879" stroke="#545879"></path><path d="M0 190.3L55 245.3L74 160.4Z" fill="#494d70" stroke="#494d70"></path><path d="M55 245.3L23 250.1L78 284Z" fill="#5a5e7d" stroke="#5a5e7d"></path><path d="M0 372.7L39 408.6L78 375.7Z" fill="#494d70" stroke="#494d70"></path><path d="M116 0L103 0L141 74.9Z" fill="#282b55" stroke="#282b55"></path><path d="M0 355.9L78 375.7L56 311.9Z" fill="#5a5e7d" stroke="#5a5e7d"></path><path d="M76 451.6L67 483.3L123 479.4Z" fill="#43476b" stroke="#43476b"></path><path d="M776 600L837 600L835 541.1Z" fill="#4e5274" stroke="#4e5274"></path><path d="M841 546.3L900 554.1L900 485.3Z" fill="#5a5e7d" stroke="#5a5e7d"></path><path d="M57 483.4L67 483.3L76 451.6Z" fill="#383c62" stroke="#383c62"></path><path d="M837 600L849 591.1L841 546.3Z" fill="#4e5274" stroke="#4e5274"></path><path d="M103 0L63 50.9L141 74.9Z" fill="#2d3059" stroke="#2d3059"></path><path d="M57 115.7L22 153.4L55 144.6Z" fill="#545879" stroke="#545879"></path><path d="M67 483.3L100 544.3L106 529.3Z" fill="#4e5274" stroke="#4e5274"></path><path d="M106 529.3L100 544.3L158 554.1Z" fill="#3e4167" stroke="#3e4167"></path><path d="M900 75.9L900 0L886 12.9Z" fill="#494d70" stroke="#494d70"></path><path d="M886 12.9L900 0L825 0Z" fill="#43476b" stroke="#43476b"></path><path d="M0 149.4L22 153.4L0 136.6Z" fill="#5a5e7d" stroke="#5a5e7d"></path><path d="M63 11.9L56 51.7L63 50.9Z" fill="#606482" stroke="#606482"></path><path d="M63 50.9L56 51.7L57 115.7Z" fill="#5a5e7d" stroke="#5a5e7d"></path><path d="M0 429.6L57 483.4L76 451.6Z" fill="#2d3059" stroke="#2d3059"></path><path d="M67 483.3L69 566.1L100 544.3Z" fill="#494d70" stroke="#494d70"></path><path d="M0 190.3L0 276.1L23 250.1Z" fill="#4e5274" stroke="#4e5274"></path><path d="M23 250.1L0 276.1L56 311.9Z" fill="#5a5e7d" stroke="#5a5e7d"></path><path d="M39 408.6L0 429.6L76 451.6Z" fill="#3e4167" stroke="#3e4167"></path><path d="M0 276.1L0 319L56 311.9Z" fill="#494d70" stroke="#494d70"></path><path d="M849 591.1L900 554.1L841 546.3Z" fill="#3e4167" stroke="#3e4167"></path><path d="M900 600L900 554.1L849 591.1Z" fill="#282b55" stroke="#282b55"></path><path d="M100 586.1L123 600L158 554.1Z" fill="#4e5274" stroke="#4e5274"></path><path d="M155 586.1L123 600L206 600Z" fill="#282b55" stroke="#282b55"></path><path d="M100 586.1L158 554.1L100 544.3Z" fill="#43476b" stroke="#43476b"></path><path d="M0 149.4L0 190.3L22 153.4Z" fill="#5a5e7d" stroke="#5a5e7d"></path><path d="M22 153.4L0 190.3L74 160.4Z" fill="#3e4167" stroke="#3e4167"></path><path d="M103 0L63 11.9L63 50.9Z" fill="#3e4167" stroke="#3e4167"></path><path d="M0 136.6L22 153.4L57 115.7Z" fill="#3e4167" stroke="#3e4167"></path><path d="M0 319L0 355.9L56 311.9Z" fill="#3e4167" stroke="#3e4167"></path><path d="M0 355.9L0 372.7L78 375.7Z" fill="#545879" stroke="#545879"></path><path d="M69 566.1L100 586.1L100 544.3Z" fill="#545879" stroke="#545879"></path><path d="M97 600L100 586.1L69 566.1Z" fill="#606482" stroke="#606482"></path><path d="M0 136.6L57 115.7L0 80.7Z" fill="#282b55" stroke="#282b55"></path><path d="M0 80.7L57 115.7L56 51.7Z" fill="#4e5274" stroke="#4e5274"></path><path d="M103 0L53 0L63 11.9Z" fill="#545879" stroke="#545879"></path><path d="M63 11.9L53 0L56 51.7Z" fill="#606482" stroke="#606482"></path><path d="M69 566.1L67 483.3L57 483.4Z" fill="#5a5e7d" stroke="#5a5e7d"></path><path d="M100 586.1L97 600L123 600Z" fill="#4e5274" stroke="#4e5274"></path><path d="M0 503.4L69 566.1L57 483.4Z" fill="#5a5e7d" stroke="#5a5e7d"></path><path d="M0 372.7L0 429.6L39 408.6Z" fill="#545879" stroke="#545879"></path><path d="M837 600L900 600L849 591.1Z" fill="#33365e" stroke="#33365e"></path><path d="M0 39.9L0 80.7L56 51.7Z" fill="#5a5e7d" stroke="#5a5e7d"></path><path d="M0 429.6L0 481.3L57 483.4Z" fill="#4e5274" stroke="#4e5274"></path><path d="M53 0L0 39.9L56 51.7Z" fill="#606482" stroke="#606482"></path><path d="M0 481.3L0 503.4L57 483.4Z" fill="#383c62" stroke="#383c62"></path><path d="M69 566.1L20 600L97 600Z" fill="#282b55" stroke="#282b55"></path><path d="M53 0L0 0L0 39.9Z" fill="#606482" stroke="#606482"></path><path d="M0 503.4L0 569.1L69 566.1Z" fill="#282b55" stroke="#282b55"></path><path d="M0 569.1L20 600L69 566.1Z" fill="#5a5e7d" stroke="#5a5e7d"></path><path d="M0 569.1L0 600L20 600Z" fill="#606482" stroke="#606482"></path></g></svg>